<?xml version="1.0" encoding="UTF-8"?>
<svg width="80px" height="80px" viewBox="0 0 80 80" version="1.1" xmlns="http://www.w3.org/2000/svg" xmlns:xlink="http://www.w3.org/1999/xlink">
    <title>Artboard</title>
    <defs>
        <polygon id="path-1" points="0 0 75 0 75 72 0 72"></polygon>
        <linearGradient x1="2.44317747%" y1="83.793815%" x2="77.2500392%" y2="11.5557094%" id="linearGradient-3">
            <stop stop-color="#DEFF00" offset="0%"></stop>
            <stop stop-color="#00C300" offset="54.0699537%"></stop>
            <stop stop-color="#00C300" offset="100%"></stop>
        </linearGradient>
        <polygon id="path-4" points="0 33 80 33 80 0 0 0"></polygon>
    </defs>
    <g id="Artboard" stroke="none" stroke-width="1" fill="none" fill-rule="evenodd">
        <g id="Group" transform="translate(0.000000, 4.000000)">
            <g id="Group-3" transform="translate(3.000000, 0.000000)">
                <mask id="mask-2" fill="white">
                    <use xlink:href="#path-1"></use>
                </mask>
                <g id="Clip-2"></g>
                <path d="M27.1082611,0.363835113 C48.0347931,-2.16374262 72.3403275,8.63520656 74.7405029,27.863092 C77.1404798,47.0909774 62.4720688,54.6292918 48.1496165,61.0579164 C33.827065,67.4865411 31.5243456,70.3110904 19.0992078,71.8117634 C6.67407011,73.3125341 1.40112748,65.6363749 0.201089423,56.0223834 C-0.998849396,46.4084895 2.58498905,3.32574111 27.1082611,0.363835113" id="Fill-1" fill="url(#linearGradient-3)" mask="url(#mask-2)"></path>
            </g>
            <g id="Group-22" transform="translate(0.000000, 15.000000)">
                <path d="M9.78159558,10.3265306 L1.71136216,10.3265306 C0.890599043,10.3265306 0.225352113,9.67329313 0.225352113,8.86734694 C0.225352113,8.06140074 0.890599043,7.40816327 1.71136216,7.40816327 L9.78159558,7.40816327 C10.6023587,7.40816327 11.2676056,8.06140074 11.2676056,8.86734694 C11.2676056,9.67329313 10.6023587,10.3265306 9.78159558,10.3265306" id="Fill-1" fill="#1E1E1E"></path>
                <path d="M11.7894771,5.6122449 L8.492213,5.6122449 C7.66024458,5.6122449 6.98591549,4.95900742 6.98591549,4.15306122 C6.98591549,3.34711503 7.66024458,2.69387755 8.492213,2.69387755 L11.7894771,2.69387755 C12.6214456,2.69387755 13.2957746,3.34711503 13.2957746,4.15306122 C13.2957746,4.95900742 12.6214456,5.6122449 11.7894771,5.6122449" id="Fill-3" fill="#1E1E1E"></path>
                <path d="M12.4600282,14.5918367 L8.7230704,14.5918367 C7.88806126,14.5918367 7.21126761,13.9385993 7.21126761,13.1326531 C7.21126761,12.3267069 7.88806126,11.6734694 8.7230704,11.6734694 L12.4600282,11.6734694 C13.2950373,11.6734694 13.971831,12.3267069 13.971831,13.1326531 C13.971831,13.9385993 13.2950373,14.5918367 12.4600282,14.5918367" id="Fill-5" fill="#1E1E1E"></path>
                <path d="M15.7289033,10.5961623 C16.9674782,11.3440581 18.8491885,12.0216058 20.4687231,12.0216058 C21.4214263,12.0216058 22.3978255,11.9518539 22.3978255,11.27371 C22.3978255,10.8298611 22.1119538,10.7133098 21.6119062,10.5729116 L19.3729322,10.0119152 C16.6102145,9.28727 15.3239437,8.00222455 15.3239437,5.61843694 C15.3239437,2.55680351 17.8961815,0.897959184 21.2069466,0.897959184 C23.3745286,0.897959184 24.7318876,1.31855745 25.9704624,1.92605515 L25.9704624,5.94543644 C24.5891036,5.05773862 23.0886568,4.56679224 21.4451223,4.56679224 C20.5638111,4.56679224 19.8969797,4.73044103 19.8969797,5.19783868 C19.8969797,5.61843694 20.2065475,5.78208573 20.7068989,5.89893515 L22.8027851,6.45963347 C25.7085906,7.27757935 27.0422535,8.72686976 27.0422535,10.9702592 C27.0422535,14.3588922 24.0650561,15.7142857 20.6115071,15.7142857 C18.6584048,15.7142857 16.8483903,15.17654 15.7289033,14.5922929 L15.7289033,10.5961623 Z" id="Fill-7" fill="#1E1E1E"></path>
                <path d="M27.943662,4.95135207 L32.3886129,4.95135207 L32.3886129,5.82855808 C32.9734748,5.16483275 34.0262264,4.71428571 35.2192254,4.71428571 C37.5353981,4.71428571 38.9859155,6.23132898 38.9859155,8.62588063 L38.9859155,15.7142857 L34.5409646,15.7142857 L34.5409646,9.83479811 C34.5409646,9.19496085 34.2133225,8.67335438 33.5114882,8.67335438 C32.9734748,8.67335438 32.5291588,9.00506586 32.3886129,9.55056039 L32.3886129,15.7142857 L27.943662,15.7142857 L27.943662,4.95135207 Z" id="Fill-9" fill="#1E1E1E"></path>
                <path d="M44.477922,9.14252545 L46.9244054,9.14252545 C46.8283449,8.45598367 46.3966845,8.02950018 45.749041,8.02950018 C45.0775353,8.02950018 44.6697371,8.47954296 44.477922,9.14252545 L44.477922,9.14252545 Z M44.5736766,11.368576 C44.9576126,12.1970776 45.7970712,12.5051605 46.9721297,12.5051605 C48.0994639,12.5051605 48.9869528,12.3393394 50.1381491,11.7237775 L50.1381491,14.9915714 C49.3225527,15.5597126 47.8834808,15.9387755 46.2287316,15.9387755 C42.5591595,15.9387755 40.1126761,13.8785461 40.1126761,10.3975105 C40.1126761,7.01131615 42.463099,4.71428571 45.5330578,4.71428571 C49.1068754,4.71428571 50.9295775,6.94033624 50.9295775,10.1607095 L50.9295775,11.368576 L44.5736766,11.368576 Z" id="Fill-11" fill="#1E1E1E"></path>
                <mask id="mask-5" fill="white">
                    <use xlink:href="#path-4"></use>
                </mask>
                <g id="Clip-14"></g>
                <polygon id="Fill-13" fill="#1E1E1E" mask="url(#mask-5)" points="52.056338 15.7142857 56.3380282 15.7142857 56.3380282 0 52.056338 0"></polygon>
                <path d="M7.15844785,22.0100218 L5.46297629,22.0100218 L5.46297629,24.956701 L7.15844785,24.956701 C8.35252771,24.956701 8.83015965,24.3865227 8.83015965,23.4832098 C8.83015965,22.5802001 8.35252771,22.0100218 7.15844785,22.0100218 L7.15844785,22.0100218 Z M5.46297629,28.7830493 L5.46297629,32.7755102 L0.901408451,32.7755102 L0.901408451,18.1836735 L7.77955214,18.1836735 C11.0273275,18.1836735 13.2957746,20.0848742 13.2957746,23.4832098 C13.2957746,26.8815455 11.0273275,28.7830493 7.77955214,28.7830493 L5.46297629,28.7830493 Z" id="Fill-15" fill="#1E1E1E" mask="url(#mask-5)"></path>
                <path d="M19.4982158,29.2946899 C19.2822327,28.9914876 18.8747404,28.7816241 18.3470195,28.7816241 C17.8192986,28.7816241 17.2918837,29.0149709 17.2918837,29.5274422 C17.2918837,30.040508 17.8192986,30.2732604 18.3470195,30.2732604 C18.8747404,30.2732604 19.2822327,30.0636941 19.4982158,29.7604918 L19.4982158,29.2946899 Z M19.4982158,26.661289 C19.4982158,26.0551817 18.8267101,25.5192271 17.2677156,25.5192271 C16.3321965,25.5192271 15.1810001,25.7522767 14.3415415,26.1948926 L14.3415415,22.7924875 C15.324785,22.3498716 16.8360552,22 18.4669422,22 C21.896669,22 23.8873239,23.4916363 23.8873239,26.5212809 L23.8873239,32.8136198 L19.4982158,32.8136198 L19.4982158,32.3008512 C19.1384479,32.6504256 18.1310363,33 16.97984,33 C14.8931246,33 13.0704225,31.8814214 13.0704225,29.620781 C13.0704225,27.5465207 14.8931246,26.2882313 17.2196853,26.2882313 C18.083312,26.2882313 19.0665555,26.544467 19.4982158,26.8476692 L19.4982158,26.661289 Z" id="Fill-16" fill="#1E1E1E" mask="url(#mask-5)"></path>
                <polygon id="Fill-17" fill="#1E1E1E" mask="url(#mask-5)" points="37.6338028 32.7755102 32.6512505 32.7755102 30.0162145 28.3270352 30.0162145 32.7755102 25.4647887 32.7755102 25.4647887 17.0612245 30.0162145 17.0612245 30.0162145 25.6676946 32.4596726 21.7995627 37.5381667 21.7995627 33.9926011 26.9248991"></polygon>
                <polygon id="Fill-18" fill="#1E1E1E" mask="url(#mask-5)" points="50.7042254 32.7755102 45.721673 32.7755102 43.086637 28.3270352 43.086637 32.7755102 38.5352113 32.7755102 38.5352113 17.0612245 43.086637 17.0612245 43.086637 25.6676946 45.5300951 21.7995627 50.6085892 21.7995627 47.0630236 26.9248991"></polygon>
                <path d="M54.6187671,26.2037499 L57.0652505,26.2037499 C56.96919,25.5172082 56.5375296,25.0907247 55.8898861,25.0907247 C55.2183804,25.0907247 54.8105821,25.5407675 54.6187671,26.2037499 L54.6187671,26.2037499 Z M54.7145216,28.4298005 C55.0984577,29.258302 55.9379163,29.566385 57.1129748,29.566385 C58.240309,29.566385 59.1277978,29.4005639 60.2789942,28.785002 L60.2789942,32.0527959 C59.4633977,32.6209371 58.0243258,33 56.3695767,33 C52.7000045,33 50.2535211,30.9397706 50.2535211,27.458735 C50.2535211,24.0725406 52.603944,21.7755102 55.6739029,21.7755102 C59.2477205,21.7755102 61.0704225,24.0015607 61.0704225,27.221934 L61.0704225,28.4298005 L54.7145216,28.4298005 Z" id="Fill-19" fill="#1E1E1E" mask="url(#mask-5)"></path>
                <path d="M69.8591549,26.2322973 C69.338006,25.9955333 68.8881564,25.9002834 68.2247112,25.9002834 C67.2062805,25.9002834 66.6141346,26.3033567 66.4721404,26.8488512 L66.4721404,32.7755102 L61.971831,32.7755102 L61.971831,22.0125766 L66.4721404,22.0125766 L66.4721404,22.8897826 C67.0404192,22.2260572 67.8219915,21.7755102 68.9352864,21.7755102 C69.3618732,21.7755102 69.6932936,21.8704577 69.8591549,21.9654052 L69.8591549,26.2322973 Z" id="Fill-20" fill="#1E1E1E" mask="url(#mask-5)"></path>
            </g>
        </g>
    </g>
</svg>